<svg width="82" height="44" viewBox="0 0 82 44" fill="none" xmlns="http://www.w3.org/2000/svg">
<path d="M54.3392 30.1635L43.3799 0L39.1435 0.27673L27.079 30.8092C24.7767 36.6205 22.8427 40.956 21.5533 43.9078H25.145C26.3423 40.218 27.9079 35.9748 29.7498 31.2704L32.6048 23.9832L33.5257 21.5849L39.9724 4.7044L45.8665 21.5849L46.6953 23.9832L48.9056 30.2558C51.1159 36.805 52.5894 41.4172 53.2341 44H59.9571C58.7598 41.7862 56.9179 37.2662 54.3392 30.1635ZM55.2602 16.2348C55.2602 16.2348 68.2456 12.5451 74.8765 12.5451C81.5073 12.5451 81.9678 16.2348 81.9678 16.2348C81.9678 16.2348 82.8888 10.7002 74.8765 10.7002C66.8642 10.7002 55.2602 16.2348 55.2602 16.2348ZM7.00228 32.8386C0.463521 32.8386 0.00304447 29.1488 0.00304447 29.1488C0.00304447 29.1488 -0.365337 34.3145 7.00228 34.3145C14.0936 34.3145 22.8427 30.1635 22.8427 30.1635C22.8427 30.1635 13.541 32.8386 7.00228 32.8386Z" fill="#B68E6C"/>
</svg>
